<svg id="Layer_1" data-name="Layer 1" xmlns="http://www.w3.org/2000/svg" viewBox="0 0 272.11 103.37"><defs><style>.cls-1{fill:#231f20;}</style></defs><title>logo</title><path class="cls-1" d="M130.42,106.8l-34-39.45h-.3L62.17,106.8h-3.6v-.15l36-41.4L61.72,27.15V27h3.6L96.07,63h.45l30.75-36h3.45v.15L98.17,65.25,134,106.65v.15Z" transform="translate(-22.9 -27)"/><path class="cls-1" d="M224.47,106.8l-34-39.45h-.3l-33.9,39.45h-3.6v-.15l36-41.4-32.85-38.1V27h3.6l30.75,36h.45l30.75-36h3.45v.15l-32.55,38.1,35.85,41.4v.15Z" transform="translate(-22.9 -27)"/><path class="cls-1" d="M51,84.65a14.82,14.82,0,0,1,.74,1.92,18.53,18.53,0,0,1,.56,2.33,15,15,0,0,1,.22,2.61,21.81,21.81,0,0,1-.26,3.25,9.29,9.29,0,0,1-1.08,3.19,6.77,6.77,0,0,1-2.35,2.43,7.42,7.42,0,0,1-4,1H31.44V108h-.72v-6.66H26.23v-.8h4.49V85.65h.72v14.88H44.83a6.8,6.8,0,0,0,3.61-.84,6.09,6.09,0,0,0,2.12-2.16,8.56,8.56,0,0,0,1-2.95,19.8,19.8,0,0,0,.26-3.15A12.16,12.16,0,0,0,51.61,89a16.56,16.56,0,0,0-.6-2.21q-.36-1-.74-1.84t-.7-1.38l.72-.36Q50.6,83.81,51,84.65Z" transform="translate(-22.9 -27)"/><path class="cls-1" d="M52,58.31h-15a10.36,10.36,0,0,0-2.31.26,4.23,4.23,0,0,0-2.06,1.18,6,6,0,0,0-1.26,2,8.82,8.82,0,0,0-.5,3.25,15.13,15.13,0,0,0,1,5.25,11.08,11.08,0,0,0,.66,1.54q.42.82.92,1.62t1,1.52q.5.72.94,1.24H52V77H22.9v-.8H34.61v-.08a30.18,30.18,0,0,1-1.9-2.85,20,20,0,0,1-1.38-2.85,15,15,0,0,1-.82-2.79,14.62,14.62,0,0,1-.26-2.71,9.87,9.87,0,0,1,.52-3.39,6.35,6.35,0,0,1,1.44-2.35,5.86,5.86,0,0,1,2-1.26A8.06,8.06,0,0,1,37,57.51H52Z" transform="translate(-22.9 -27)"/><path class="cls-1" d="M41.26,49.57a11.18,11.18,0,0,0,5-1A9.55,9.55,0,0,0,49.52,46a9.67,9.67,0,0,0,1.78-3.43,13.2,13.2,0,0,0,.54-3.65,22.55,22.55,0,0,0-.3-3.59q-.3-1.86-.66-3.43t-1-3.57l.6,0q.64,2.13,1,3.71t.68,3.43a20,20,0,0,1,.32,3.41,14.18,14.18,0,0,1-.72,4.47,10.17,10.17,0,0,1-2.33,3.87A10.33,10.33,0,0,1,46,49.51a12.66,12.66,0,0,1-4.93.86,11.38,11.38,0,0,1-4.59-.88A9.35,9.35,0,0,1,33.08,47,11.63,11.63,0,0,1,31,43.43a12.81,12.81,0,0,1-.76-4.57,10.86,10.86,0,0,1,.84-4.25A10.26,10.26,0,0,1,33.6,31a11.69,11.69,0,0,1,3.33-2.1,10.93,10.93,0,0,1,4.33-.82ZM37,29.8a9.75,9.75,0,0,0-3.09,2,9.93,9.93,0,0,0-2.15,3.09,9.53,9.53,0,0,0-.8,3.95,12,12,0,0,0,.76,4.37,10.24,10.24,0,0,0,2.08,3.37,9.53,9.53,0,0,0,3.07,2.19,9,9,0,0,0,3.71.78V29A10.52,10.52,0,0,0,37,29.8Z" transform="translate(-22.9 -27)"/><path class="cls-1" d="M72.43,125.94v-7.26q0-2.89,0-4.39h-.05q-1,1.51-2.91,4.39l-4.83,7.25H64.3l-4.81-7.25-2.91-4.39h-.05q0,1.51,0,4.4v7.24h-.37V113.89h.53q2.89,4.35,4.84,7.26t2.92,4.4h.05l2.92-4.4,4.84-7.26h.51v12.05Z" transform="translate(-22.9 -27)"/><path class="cls-1" d="M84.07,125.94l0-1.65H84q-.71.48-1.27.81a7.91,7.91,0,0,1-1.15.57,6.34,6.34,0,0,1-2.33.48,4.2,4.2,0,0,1-1.44-.22,2.69,2.69,0,0,1-1-.61,2.48,2.48,0,0,1-.54-.85,3.43,3.43,0,0,1-.18-1.19v-6.37h.34v6.36a4.42,4.42,0,0,0,.11,1,1.74,1.74,0,0,0,.52.87,2.87,2.87,0,0,0,.81.5,3.52,3.52,0,0,0,1.4.23,5.3,5.3,0,0,0,1.08-.12,7,7,0,0,0,1.16-.36,10.19,10.19,0,0,0,1.17-.58,11.06,11.06,0,0,0,1.33-.88v-7h.34v9Z" transform="translate(-22.9 -27)"/><path class="cls-1" d="M96.26,124.5a2.89,2.89,0,0,1-.8.81,4.39,4.39,0,0,1-1.39.61,7.54,7.54,0,0,1-1.93.22,9.71,9.71,0,0,1-1.57-.12,10.19,10.19,0,0,1-1.33-.31,4.38,4.38,0,0,1-1-.45,5.61,5.61,0,0,1-.77-.59l.24-.24a4.12,4.12,0,0,0,1.64,1,7.9,7.9,0,0,0,2.73.42,8.12,8.12,0,0,0,1.69-.18,4.32,4.32,0,0,0,1.47-.59,2.21,2.21,0,0,0,.69-.69,1.67,1.67,0,0,0,.25-.89,1.94,1.94,0,0,0-.14-.7,1.66,1.66,0,0,0-.46-.65,2.57,2.57,0,0,0-.48-.32,3.53,3.53,0,0,0-.66-.25q-.4-.11-1-.21L92,121.13l-1.39-.22q-.56-.1-1-.2a4.14,4.14,0,0,1-.65-.22,2.93,2.93,0,0,1-.5-.29,1.68,1.68,0,0,1-.76-1.39,1.6,1.6,0,0,1,.29-1,1.94,1.94,0,0,1,.83-.65,7.69,7.69,0,0,1,3.11-.51,11.38,11.38,0,0,1,1.41.08,4.55,4.55,0,0,1,1.29.36,4.76,4.76,0,0,1,.74.42,2.87,2.87,0,0,1,.6.57l-.25.22a3,3,0,0,0-1.33-1A6.48,6.48,0,0,0,92,117a12.47,12.47,0,0,0-1.61.1,4.26,4.26,0,0,0-1.37.39,2,2,0,0,0-.67.54,1.21,1.21,0,0,0-.25.77,1.44,1.44,0,0,0,.12.57,1.29,1.29,0,0,0,.44.52,2.4,2.4,0,0,0,.46.28,3.85,3.85,0,0,0,.62.21c.25.07.57.14,1,.2l1.46.24,1.4.25q.59.11,1,.23a4.25,4.25,0,0,1,.7.26,3.11,3.11,0,0,1,.53.33,1.83,1.83,0,0,1,.53.69,2.08,2.08,0,0,1,.19.86A2,2,0,0,1,96.26,124.5Z" transform="translate(-22.9 -27)"/><path class="cls-1" d="M99.06,121.37a4.74,4.74,0,0,0,.43,2.12,4,4,0,0,0,1.08,1.38,4.1,4.1,0,0,0,1.45.76,5.58,5.58,0,0,0,1.55.23,9.57,9.57,0,0,0,1.52-.13q.79-.13,1.45-.28t1.51-.41l0,.25q-.9.27-1.57.43T105,126a8.56,8.56,0,0,1-1.45.14,6,6,0,0,1-1.9-.31,4.31,4.31,0,0,1-1.64-1,4.38,4.38,0,0,1-1-1.46,5.37,5.37,0,0,1-.37-2.09,4.83,4.83,0,0,1,.37-1.95,4,4,0,0,1,1.07-1.45,4.92,4.92,0,0,1,1.5-.88,5.42,5.42,0,0,1,1.94-.32,4.6,4.6,0,0,1,1.8.36,4.35,4.35,0,0,1,1.51,1.07,5,5,0,0,1,.89,1.41,4.63,4.63,0,0,1,.35,1.84Zm8.38-1.83a4.14,4.14,0,0,0-.86-1.31,4.22,4.22,0,0,0-1.31-.91,4,4,0,0,0-1.67-.34,5.08,5.08,0,0,0-1.85.32,4.33,4.33,0,0,0-1.43.88,4,4,0,0,0-.93,1.3,3.8,3.8,0,0,0-.33,1.57h8.72A4.46,4.46,0,0,0,107.44,119.54Z" transform="translate(-22.9 -27)"/><path class="cls-1" d="M119,125.94l0-1.65H119q-.71.48-1.27.81a7.91,7.91,0,0,1-1.15.57,6.34,6.34,0,0,1-2.33.48,4.2,4.2,0,0,1-1.44-.22,2.69,2.69,0,0,1-1-.61,2.48,2.48,0,0,1-.54-.85,3.43,3.43,0,0,1-.18-1.19v-6.37h.34v6.36a4.42,4.42,0,0,0,.11,1,1.74,1.74,0,0,0,.52.87,2.87,2.87,0,0,0,.81.5,3.52,3.52,0,0,0,1.4.23,5.3,5.3,0,0,0,1.08-.12,7,7,0,0,0,1.16-.36,10.19,10.19,0,0,0,1.17-.58,11.06,11.06,0,0,0,1.33-.88v-7h.34v9Z" transform="translate(-22.9 -27)"/><path class="cls-1" d="M136.14,125.94v-6.71a4.11,4.11,0,0,0-.09-.82,1.63,1.63,0,0,0-.41-.77,1.83,1.83,0,0,0-.69-.47,3,3,0,0,0-1.11-.18,4.14,4.14,0,0,0-.84.09,5,5,0,0,0-1,.31A8.75,8.75,0,0,0,131,118a9.19,9.19,0,0,0-1.2.89v7.09h-.34V119a2.56,2.56,0,0,0-.13-.84,1.51,1.51,0,0,0-.47-.65,2.47,2.47,0,0,0-1.67-.53,4.52,4.52,0,0,0-.87.09,5,5,0,0,0-1,.33,7.74,7.74,0,0,0-1.1.6,10,10,0,0,0-1.12.86v7.07h-.34v-9h.34l0,1.6h0a10.76,10.76,0,0,1,1.22-.87,8.06,8.06,0,0,1,1.07-.55,4.82,4.82,0,0,1,.94-.29,4.63,4.63,0,0,1,.86-.08,3.31,3.31,0,0,1,1.05.15,2.52,2.52,0,0,1,.78.41,1.67,1.67,0,0,1,.52.64,1.91,1.91,0,0,1,.2.6h0a13.18,13.18,0,0,1,1.17-.85,6.58,6.58,0,0,1,1.07-.56,5.71,5.71,0,0,1,1-.3,4.49,4.49,0,0,1,.9-.09,3.29,3.29,0,0,1,1.21.2,2.26,2.26,0,0,1,.82.54,2,2,0,0,1,.45.76,3,3,0,0,1,.14,1v6.8Z" transform="translate(-22.9 -27)"/><path class="cls-1" d="M154,123.18a4.27,4.27,0,0,1-.92,1.5,4.51,4.51,0,0,1-1.58,1.06,6,6,0,0,1-2.29.4,6.07,6.07,0,0,1-2.25-.38,4.44,4.44,0,0,1-1.59-1,4.29,4.29,0,0,1-.94-1.5,5.14,5.14,0,0,1-.31-1.8,4.85,4.85,0,0,1,.39-2,4.32,4.32,0,0,1,1.08-1.49,4.64,4.64,0,0,1,1.62-.93,6.24,6.24,0,0,1,2-.31,6.17,6.17,0,0,1,2,.31,4.65,4.65,0,0,1,1.61.93,4.32,4.32,0,0,1,1.08,1.49,4.85,4.85,0,0,1,.39,2v0A5.2,5.2,0,0,1,154,123.18Zm-.41-3.6a4.12,4.12,0,0,0-1-1.4,4.28,4.28,0,0,0-1.5-.88,5.73,5.73,0,0,0-1.87-.3,5.8,5.8,0,0,0-1.88.3,4.26,4.26,0,0,0-1.51.88,4.12,4.12,0,0,0-1,1.4,4.55,4.55,0,0,0-.37,1.86,4.85,4.85,0,0,0,.29,1.67,4.06,4.06,0,0,0,.88,1.42,4.15,4.15,0,0,0,1.49,1,5.57,5.57,0,0,0,2.11.37h0a5.46,5.46,0,0,0,2.08-.37,4.17,4.17,0,0,0,1.48-1,4.06,4.06,0,0,0,.88-1.42,4.86,4.86,0,0,0,.29-1.67A4.55,4.55,0,0,0,153.62,119.57Z" transform="translate(-22.9 -27)"/><path class="cls-1" d="M165.16,114a3.27,3.27,0,0,0-1.24-.73,6.42,6.42,0,0,0-2.19-.34,7.38,7.38,0,0,0-1.35.12,3.45,3.45,0,0,0-1.15.43,2.41,2.41,0,0,0-.87.88,2.67,2.67,0,0,0-.32,1.37v1.19h5.51v.31H158v13h-.34v-13h-2.23v-.31h2.23v-1.21a2.65,2.65,0,0,1,1.31-2.45,5.25,5.25,0,0,1,2.72-.61,9.19,9.19,0,0,1,1.22.08A5.06,5.06,0,0,1,164,113q.34.14.67.31a4,4,0,0,1,.65.42Z" transform="translate(-22.9 -27)"/><path class="cls-1" d="M180.9,124a3.47,3.47,0,0,1-1.09,1.11,6.06,6.06,0,0,1-1.75.78,8.36,8.36,0,0,1-2.28.29,11.76,11.76,0,0,1-1.89-.14,7.82,7.82,0,0,1-1.49-.38,5.35,5.35,0,0,1-1.14-.58,4,4,0,0,1-.82-.74l.29-.24a4.29,4.29,0,0,0,1.86,1.27,8.79,8.79,0,0,0,3.2.5,7.38,7.38,0,0,0,2.17-.29,6.62,6.62,0,0,0,1.66-.75,3.17,3.17,0,0,0,.93-.94,2.2,2.2,0,0,0,.35-1.2,2.24,2.24,0,0,0-.12-.76,2.46,2.46,0,0,0-.3-.59,2,2,0,0,0-.41-.43,3.31,3.31,0,0,0-.45-.3,3.67,3.67,0,0,0-.54-.25l-.74-.24-1.09-.29-1.58-.37-1.61-.37-1-.26a5.84,5.84,0,0,1-.65-.21,3.65,3.65,0,0,1-.45-.22,2.43,2.43,0,0,1-.82-.73,2.12,2.12,0,0,1-.37-1.29,2.2,2.2,0,0,1,.31-1.1,2.52,2.52,0,0,1,1-.94,5.86,5.86,0,0,1,1.63-.53,11.86,11.86,0,0,1,2.11-.17,11.43,11.43,0,0,1,1.82.13,5.85,5.85,0,0,1,1.34.37,3.56,3.56,0,0,1,.94.56,2.9,2.9,0,0,1,.61.73l-.32.17a2.33,2.33,0,0,0-.56-.67,3.43,3.43,0,0,0-.89-.52,5.85,5.85,0,0,0-1.27-.34,10.47,10.47,0,0,0-1.67-.12,11.85,11.85,0,0,0-2,.16,4.92,4.92,0,0,0-1.56.5,2.49,2.49,0,0,0-.88.77,1.84,1.84,0,0,0-.3,1.05,1.78,1.78,0,0,0,.31,1,2.07,2.07,0,0,0,.81.69,3.69,3.69,0,0,0,.55.24l.74.22,1.07.25,1.53.34,1.38.31q.6.14,1,.27a8.08,8.08,0,0,1,.78.28,4,4,0,0,1,.65.35,3.35,3.35,0,0,1,.88.87,2.27,2.27,0,0,1,.39,1.36A2.58,2.58,0,0,1,180.9,124Z" transform="translate(-22.9 -27)"/><path class="cls-1" d="M192.48,125.94l0-1.65h-.05q-.71.48-1.27.81a7.91,7.91,0,0,1-1.15.57,6.34,6.34,0,0,1-2.33.48,4.2,4.2,0,0,1-1.44-.22,2.69,2.69,0,0,1-1-.61,2.48,2.48,0,0,1-.54-.85,3.43,3.43,0,0,1-.18-1.19v-6.37h.34v6.36a4.42,4.42,0,0,0,.11,1,1.74,1.74,0,0,0,.52.87,2.87,2.87,0,0,0,.81.5,3.52,3.52,0,0,0,1.4.23,5.3,5.3,0,0,0,1.08-.12,7,7,0,0,0,1.16-.36,10.19,10.19,0,0,0,1.17-.58,11.06,11.06,0,0,0,1.33-.88v-7h.34v9Z" transform="translate(-22.9 -27)"/><path class="cls-1" d="M205.38,114a3.27,3.27,0,0,0-1.24-.73,6.42,6.42,0,0,0-2.19-.34,7.38,7.38,0,0,0-1.35.12,3.45,3.45,0,0,0-1.15.43,2.41,2.41,0,0,0-.87.88,2.67,2.67,0,0,0-.32,1.37v1.19h5.51v.31h-5.51v13h-.34v-13h-2.23v-.31h2.23v-1.21a2.65,2.65,0,0,1,1.31-2.45,5.25,5.25,0,0,1,2.72-.61,9.19,9.19,0,0,1,1.22.08,5.06,5.06,0,0,1,1.08.26q.34.14.67.31a4,4,0,0,1,.65.42Z" transform="translate(-22.9 -27)"/><path class="cls-1" d="M213.42,114a3.27,3.27,0,0,0-1.24-.73,6.42,6.42,0,0,0-2.19-.34,7.38,7.38,0,0,0-1.35.12,3.45,3.45,0,0,0-1.15.43,2.41,2.41,0,0,0-.87.88,2.67,2.67,0,0,0-.32,1.37v1.19h5.51v.31H206.3v13H206v-13h-2.23v-.31H206v-1.21a2.65,2.65,0,0,1,1.31-2.45,5.25,5.25,0,0,1,2.72-.61,9.19,9.19,0,0,1,1.22.08,5.06,5.06,0,0,1,1.08.26q.34.14.67.31a4,4,0,0,1,.65.42Z" transform="translate(-22.9 -27)"/><path class="cls-1" d="M220.58,117.81a2.7,2.7,0,0,0-.78-.58,3.11,3.11,0,0,0-1.33-.25,5.15,5.15,0,0,0-.94.09,4.49,4.49,0,0,0-1.08.37,7.22,7.22,0,0,0-1,.59,10.79,10.79,0,0,0-1,.74v7.17h-.34v-9h.34l0,1.5h0q.49-.37.94-.66a8.37,8.37,0,0,1,.94-.53,5.48,5.48,0,0,1,1-.37,4.62,4.62,0,0,1,1.13-.14,4.67,4.67,0,0,1,.76.06,2.81,2.81,0,0,1,.71.21,2.65,2.65,0,0,1,.45.26l.42.33Z" transform="translate(-22.9 -27)"/><path class="cls-1" d="M228.4,125.94a1.71,1.71,0,0,1-.38-.63,2.51,2.51,0,0,1-.09-.73h0a3.63,3.63,0,0,1-.9.77,5.35,5.35,0,0,1-1,.48,5.5,5.5,0,0,1-1,.25,6.27,6.27,0,0,1-.85.07,6.6,6.6,0,0,1-1.9-.23,3.54,3.54,0,0,1-1.19-.59,2,2,0,0,1-.62-.8,2.34,2.34,0,0,1-.18-.88,2.39,2.39,0,0,1,.48-1.53,3.52,3.52,0,0,1,1.45-1,11,11,0,0,1,2.41-.64q1.45-.24,3.37-.39v-.44a3.65,3.65,0,0,0-.17-1.17,1.83,1.83,0,0,0-.57-.83,2.61,2.61,0,0,0-1-.49,6.72,6.72,0,0,0-1.6-.16q-.76,0-1.21,0a3.57,3.57,0,0,0-.58.08l-.15,0,0-.27a11.58,11.58,0,0,1,2-.19,4.38,4.38,0,0,1,2.86.73,2.66,2.66,0,0,1,.84,2.13v4.76c0,.23,0,.41,0,.55a1.42,1.42,0,0,0,.08.37,1.55,1.55,0,0,0,.16.31,3.1,3.1,0,0,0,.29.36v0Zm-.49-5.58q-1.8.15-3.18.37a11,11,0,0,0-2.3.58,3.47,3.47,0,0,0-1.4.93,2.17,2.17,0,0,0-.32,2.16,1.75,1.75,0,0,0,.55.71,3.23,3.23,0,0,0,1.1.54,6.21,6.21,0,0,0,1.79.21,7.34,7.34,0,0,0,.77-.05,4.56,4.56,0,0,0,1-.23,5.53,5.53,0,0,0,1.05-.5,3.53,3.53,0,0,0,1-.87Z" transform="translate(-22.9 -27)"/><path class="cls-1" d="M240.41,127.6a3.73,3.73,0,0,1-.84,1.46,3.85,3.85,0,0,1-1.43,1,5.08,5.08,0,0,1-1.9.35,7.82,7.82,0,0,1-1.36-.11,5.73,5.73,0,0,1-1.21-.35,5,5,0,0,1-.93-.51,5.61,5.61,0,0,1-.9-.76l.26-.22a4.88,4.88,0,0,0,.67.61,5.2,5.2,0,0,0,1.06.61,5.43,5.43,0,0,0,1.08.32,6.83,6.83,0,0,0,1.32.12,5.12,5.12,0,0,0,.8-.07,4.75,4.75,0,0,0,.83-.21,4.3,4.3,0,0,0,.79-.37,3,3,0,0,0,.69-.57,3.74,3.74,0,0,0,.74-1.3,6.11,6.11,0,0,0,.25-1.9v-1.14h0a7.89,7.89,0,0,1-.66.55,5.35,5.35,0,0,1-2,.91,5.85,5.85,0,0,1-1.4.15,5.57,5.57,0,0,1-1.77-.29,4.81,4.81,0,0,1-1.56-.87,4.27,4.27,0,0,1-1.12-1.45,4.64,4.64,0,0,1-.43-2,5.64,5.64,0,0,1,.24-1.55,4.38,4.38,0,0,1,2.35-2.76,5.46,5.46,0,0,1,2.45-.48,5.54,5.54,0,0,1,2.18.39,5.22,5.22,0,0,1,1.68,1.17h.05l0-1.36h.34v8.77A6.76,6.76,0,0,1,240.41,127.6Zm-.09-8.91a4.89,4.89,0,0,0-1.56-1.25,5.93,5.93,0,0,0-4.66,0,4.27,4.27,0,0,0-1.44,1.18,4.1,4.1,0,0,0-.72,1.45,5.37,5.37,0,0,0-.2,1.32v0a4.55,4.55,0,0,0,.37,1.9,4.1,4.1,0,0,0,1,1.39,4.26,4.26,0,0,0,1.46.85,5.31,5.31,0,0,0,1.75.29,5.56,5.56,0,0,0,1.37-.15,5.17,5.17,0,0,0,1.09-.4,4.75,4.75,0,0,0,.86-.55,9.06,9.06,0,0,0,.68-.61Z" transform="translate(-22.9 -27)"/><path class="cls-1" d="M244.14,121.37a4.74,4.74,0,0,0,.43,2.12,4,4,0,0,0,1.08,1.38,4.1,4.1,0,0,0,1.45.76,5.58,5.58,0,0,0,1.55.23,9.57,9.57,0,0,0,1.52-.13q.79-.13,1.45-.28t1.51-.41l0,.25q-.9.27-1.57.43t-1.45.29a8.56,8.56,0,0,1-1.45.14,6,6,0,0,1-1.9-.31,4.31,4.31,0,0,1-1.64-1,4.38,4.38,0,0,1-1-1.46,5.37,5.37,0,0,1-.37-2.09,4.83,4.83,0,0,1,.37-1.95,4,4,0,0,1,1.07-1.45,4.92,4.92,0,0,1,1.5-.88,5.42,5.42,0,0,1,1.94-.32,4.6,4.6,0,0,1,1.8.36,4.35,4.35,0,0,1,1.51,1.07,5,5,0,0,1,.89,1.41,4.63,4.63,0,0,1,.35,1.84Zm8.38-1.83a4.14,4.14,0,0,0-.86-1.31,4.22,4.22,0,0,0-1.31-.91,4,4,0,0,0-1.67-.34,5.08,5.08,0,0,0-1.85.32,4.33,4.33,0,0,0-1.43.88,4,4,0,0,0-.93,1.3,3.8,3.8,0,0,0-.33,1.57h8.72A4.46,4.46,0,0,0,252.52,119.54Z" transform="translate(-22.9 -27)"/><path class="cls-1" d="M263.57,125.5a6.08,6.08,0,0,1-.82.31,7.81,7.81,0,0,1-1,.24,6.3,6.3,0,0,1-1.1.09,9.28,9.28,0,0,1-1.38-.11,4,4,0,0,1-1.35-.46,2.87,2.87,0,0,1-1-1,3.14,3.14,0,0,1-.41-1.7V117.2h-2.82v-.31h2.82V115h.34v1.9h6.31v.31h-6.31v5.68a2.88,2.88,0,0,0,.36,1.53,2.59,2.59,0,0,0,.92.9,3.66,3.66,0,0,0,1.25.43,8.47,8.47,0,0,0,1.33.11,5.2,5.2,0,0,0,1-.1,7,7,0,0,0,.94-.26q.43-.15.78-.31t.59-.3l.15.31Z" transform="translate(-22.9 -27)"/><path class="cls-1" d="M273,125.5a6.08,6.08,0,0,1-.82.31,7.81,7.81,0,0,1-1,.24,6.3,6.3,0,0,1-1.1.09,9.28,9.28,0,0,1-1.38-.11,4,4,0,0,1-1.35-.46,2.87,2.87,0,0,1-1-1,3.14,3.14,0,0,1-.41-1.7V117.2h-2.82v-.31h2.82V115h.34v1.9h6.31v.31h-6.31v5.68a2.88,2.88,0,0,0,.36,1.53,2.59,2.59,0,0,0,.92.9,3.66,3.66,0,0,0,1.25.43,8.47,8.47,0,0,0,1.33.11,5.2,5.2,0,0,0,1-.1,7,7,0,0,0,.94-.26q.43-.15.78-.31t.59-.3l.15.31Z" transform="translate(-22.9 -27)"/><path class="cls-1" d="M274.88,121.37a4.74,4.74,0,0,0,.43,2.12,4,4,0,0,0,1.08,1.38,4.1,4.1,0,0,0,1.45.76,5.58,5.58,0,0,0,1.55.23,9.57,9.57,0,0,0,1.52-.13q.79-.13,1.45-.28t1.51-.41l0,.25q-.9.27-1.57.43t-1.45.29a8.55,8.55,0,0,1-1.44.14,6,6,0,0,1-1.9-.31,4.31,4.31,0,0,1-1.64-1,4.38,4.38,0,0,1-1-1.46,5.37,5.37,0,0,1-.37-2.09,4.83,4.83,0,0,1,.37-1.95A4,4,0,0,1,276,117.9a4.92,4.92,0,0,1,1.5-.88,5.42,5.42,0,0,1,1.94-.32,4.6,4.6,0,0,1,1.8.36,4.34,4.34,0,0,1,1.51,1.07,5,5,0,0,1,.89,1.41,4.63,4.63,0,0,1,.35,1.84Zm8.38-1.83a4.14,4.14,0,0,0-.86-1.31,4.22,4.22,0,0,0-1.31-.91,4,4,0,0,0-1.67-.34,5.08,5.08,0,0,0-1.85.32,4.33,4.33,0,0,0-1.43.88,4,4,0,0,0-.93,1.3,3.8,3.8,0,0,0-.33,1.57h8.72A4.45,4.45,0,0,0,283.26,119.54Z" transform="translate(-22.9 -27)"/><path class="cls-1" d="M294.75,124.5a2.88,2.88,0,0,1-.8.81,4.4,4.4,0,0,1-1.39.61,7.53,7.53,0,0,1-1.93.22,9.73,9.73,0,0,1-1.57-.12,10.22,10.22,0,0,1-1.33-.31,4.37,4.37,0,0,1-1-.45,5.61,5.61,0,0,1-.77-.59l.24-.24a4.12,4.12,0,0,0,1.64,1,7.9,7.9,0,0,0,2.73.42,8.12,8.12,0,0,0,1.69-.18,4.32,4.32,0,0,0,1.47-.59,2.2,2.2,0,0,0,.69-.69,1.67,1.67,0,0,0,.25-.89,1.94,1.94,0,0,0-.14-.7,1.66,1.66,0,0,0-.46-.65,2.57,2.57,0,0,0-.48-.32,3.52,3.52,0,0,0-.66-.25q-.4-.11-1-.21l-1.41-.24-1.39-.22q-.56-.1-1-.2a4.13,4.13,0,0,1-.65-.22,3,3,0,0,1-.5-.29,1.68,1.68,0,0,1-.76-1.39,1.6,1.6,0,0,1,.29-1,1.94,1.94,0,0,1,.83-.65,7.69,7.69,0,0,1,3.11-.51,11.38,11.38,0,0,1,1.41.08,4.55,4.55,0,0,1,1.29.36,4.77,4.77,0,0,1,.74.42,2.88,2.88,0,0,1,.6.57l-.26.22a3,3,0,0,0-1.33-1,6.49,6.49,0,0,0-2.47-.39,12.48,12.48,0,0,0-1.61.1,4.26,4.26,0,0,0-1.37.39,2,2,0,0,0-.67.54,1.21,1.21,0,0,0-.25.77,1.45,1.45,0,0,0,.12.57,1.29,1.29,0,0,0,.44.52,2.43,2.43,0,0,0,.46.28,3.9,3.9,0,0,0,.62.21c.25.07.58.14,1,.2l1.46.24,1.4.25q.59.11,1,.23a4.25,4.25,0,0,1,.7.26,3.07,3.07,0,0,1,.53.33,1.83,1.83,0,0,1,.53.69,2.07,2.07,0,0,1,.19.86A2,2,0,0,1,294.75,124.5Z" transform="translate(-22.9 -27)"/></svg>